<?xml version="1.0" encoding="UTF-8"?>
<svg id="Layer_2" data-name="Layer 2" xmlns="http://www.w3.org/2000/svg" viewBox="0 0 504.82 250.1">
  <defs>
    <style>
      .cls-1 {
        stroke-width: 0px;
      }

      .cls-2 {
        opacity: .17;
      }
    </style>
  </defs>
  <g id="Layer_1-2" data-name="Layer 1">
    <g class="cls-2">
      <path class="cls-1" d="M230.43,166.37v.14c0,1.13-.03,2.27-.08,3.37-.03.25-.03.52-.06.77-.03.86-.11,1.71-.19,2.54-.03.3-.06.64-.08.94-.25,2.24-.58,4.45-1.02,6.6-.5,2.35-1.08,4.61-1.77,6.85-2.46,7.9-6.27,15.22-11.13,21.69-13.01,17.29-33.7,28.46-56.99,28.46H23.81v-.06h-1.66c-8.34-.55-15.5-5.41-19.26-12.38l-2.27-5.88c-.41-1.77-.64-3.59-.64-5.47v-.06c0-4.34,1.19-8.4,3.2-11.91,4.14-7.07,11.82-11.82,20.58-11.82h135.32c12.29,0,22.43-9.34,23.65-21.36.06-.8.11-1.6.11-2.43,0-.77-.03-1.55-.11-2.29-1.22-12.02-11.35-21.36-23.65-21.36H60.17c-8.76,0-16.44-4.75-20.58-11.82-2.02-3.51-3.2-7.57-3.2-11.91v-.06c0-12.6,9.78-22.9,22.16-23.73h1.66v-.06h87.16c13.12,0,23.76-10.66,23.76-23.79s-10.64-23.79-23.76-23.79h-50.81c-8.76,0-16.44-4.75-20.58-11.82-2.02-3.51-3.2-7.57-3.2-11.91v-.06c0-2.74.44-5.33,1.3-7.79l.5-1.3C77.93,6.55,85.73.66,94.92.06h1.66v-.06h50.78c39.4,0,71.33,31.96,71.33,71.36,0,15.31-4.81,29.51-13.04,41.11,3.87,3.32,7.38,7.04,10.44,11.13,4.86,6.46,8.67,13.79,11.13,21.69.69,2.24,1.27,4.53,1.77,6.85.22,1.16.44,2.32.61,3.51.17,1.02.3,2.04.41,3.09.06.3.08.61.08.94.08.83.17,1.69.19,2.54.03.25.06.52.06.77.06,1.1.08,2.24.08,3.37Z"/>
      <path class="cls-1" d="M504.82,26.13c0,2.71-.44,5.33-1.3,7.76l-.55,1.44c-.39.94-.86,1.85-1.35,2.74-1.96,3.4-4.75,6.27-8.12,8.32-3.62,2.24-7.87,3.54-12.43,3.54h-165.48c-13.15-.03-23.76-10.66-23.76-23.79s10.61-23.76,23.76-23.79h165.48c4.56.03,8.84,1.3,12.43,3.54,6.8,4.17,11.33,11.66,11.33,20.25Z"/>
      <path class="cls-1" d="M467.14,118.88c0,13.12-10.64,23.79-23.76,23.79h-103.63v84.87c-.64,12.57-11.05,22.57-23.76,22.57h-.03c-13.18-.03-23.79-10.66-23.79-23.79v-107.44c0-13.12,10.66-23.73,23.79-23.73h128.63c5.53.28,10.55,2.46,14.48,5.88,4.95,4.34,8.07,10.72,8.07,17.85Z"/>
    </g>
  </g>
</svg>